<?xml version="1.0" encoding="utf-8"?>
<!-- Generator: Adobe Illustrator 21.1.0, SVG Export Plug-In . SVG Version: 6.00 Build 0)  -->
<svg version="1.1" id="Calque_1" xmlns="http://www.w3.org/2000/svg" xmlns:xlink="http://www.w3.org/1999/xlink" x="0px" y="0px"
	 viewBox="0 0 29.5 29.5" style="enable-background:new 0 0 29.5 29.5;" xml:space="preserve">
<style type="text/css">
	.st0{clip-path:url(#SVGID_2_);fill:#ffffff;}
</style>
<g>
	<defs>
		<rect id="SVGID_1_" width="29.5" height="29.5"/>
	</defs>
	<clipPath id="SVGID_2_">
		<use xlink:href="#SVGID_1_"  style="overflow:visible;"/>
	</clipPath>
	<path class="st0" d="M7.4,21.7h14.6c0.2,0,0.4-0.2,0.4-0.4v-5.7l-7.7,1.7c0,0-0.1,0-0.1,0c0,0-0.1,0-0.1,0L7,15.6v5.7
		C7,21.5,7.2,21.7,7.4,21.7 M22.1,11.4H7.4c-0.2,0-0.4,0.2-0.4,0.4v2.9l7.7,1.7l7.8-1.7v-2.9C22.5,11.6,22.3,11.4,22.1,11.4
		 M18.2,9.2c0-0.2-0.2-0.4-0.4-0.4h-6c-0.2,0-0.4,0.2-0.4,0.4v1.4h6.8V9.2z M7.4,10.6h3V9.2c0-0.7,0.6-1.2,1.4-1.2h6
		c0.7,0,1.4,0.6,1.4,1.2v1.4h3c0.7,0,1.4,0.6,1.4,1.2v9.5c0,0.7-0.6,1.2-1.4,1.2H7.4c-0.7,0-1.4-0.6-1.4-1.2v-9.5
		C6.1,11.1,6.7,10.6,7.4,10.6"/>
</g>
</svg>
