<?xml version="1.0" encoding="utf-8"?>
<!-- Generator: Adobe Illustrator 21.1.0, SVG Export Plug-In . SVG Version: 6.00 Build 0)  -->
<svg version="1.1" id="Calque_1" xmlns="http://www.w3.org/2000/svg" xmlns:xlink="http://www.w3.org/1999/xlink" x="0px" y="0px"
	 viewBox="0 0 29.5 29.5" style="enable-background:new 0 0 29.5 29.5;" xml:space="preserve">
<style type="text/css">
	.st0{clip-path:url(#SVGID_2_);fill:#ffffff;}
	.st1{clip-path:url(#SVGID_2_);fill:#ffffff;}
</style>
<g>
	<defs>
		<rect id="SVGID_1_" width="29.5" height="29.5"/>
	</defs>
	<clipPath id="SVGID_2_">
		<use xlink:href="#SVGID_1_"  style="overflow:visible;"/>
	</clipPath>
	<path class="st0" d="M18.8,17.2c0-0.1,0-0.2,0.1-0.3l3.4-3.2c0.2-0.2,0.1-0.5-0.2-0.5l-4.7-0.7c-0.1,0-0.2-0.1-0.2-0.2l-2.1-4.1
		c-0.1-0.2-0.5-0.2-0.6,0l-2.1,4.1c-0.1,0.1-0.1,0.1-0.2,0.2l-4.7,0.7c-0.3,0-0.4,0.3-0.2,0.5l3.4,3.2c0.1,0.1,0.1,0.2,0.1,0.3
		L10,21.7c-0.1,0.3,0.2,0.5,0.5,0.3l4.2-2.1c0.1-0.1,0.2-0.1,0.3,0l4.1,2.1c0.2,0.1,0.5-0.1,0.5-0.3L18.8,17.2z"/>
	<path class="st1" d="M14.8,6.6c0.2,0,0.4-0.2,0.4-0.4V3.8c0-0.2-0.2-0.4-0.4-0.4c-0.2,0-0.4,0.2-0.4,0.4v2.3
		C14.3,6.4,14.5,6.6,14.8,6.6"/>
	<path class="st1" d="M7.7,9.1C7.8,9.2,8,9.3,8.1,9.3c0.1,0,0.2,0,0.3-0.1c0.2-0.2,0.2-0.4,0-0.6L6.7,6.9c-0.2-0.2-0.4-0.2-0.6,0
		c-0.2,0.2-0.2,0.4,0,0.6L7.7,9.1z"/>
	<path class="st1" d="M5.7,15.3c0-0.2-0.2-0.4-0.4-0.4H2.9c-0.2,0-0.4,0.2-0.4,0.4c0,0.2,0.2,0.4,0.4,0.4h2.4
		C5.5,15.8,5.7,15.6,5.7,15.3"/>
	<path class="st1" d="M6.7,22.5L5,24.2c-0.2,0.2-0.2,0.4,0,0.6c0.1,0.1,0.2,0.1,0.3,0.1c0.1,0,0.2,0,0.3-0.1l1.7-1.7
		c0.2-0.2,0.2-0.4,0-0.6C7.2,22.4,6.9,22.4,6.7,22.5"/>
	<path class="st1" d="M14.8,22.9c-0.2,0-0.4,0.2-0.4,0.4v2.3c0,0.2,0.2,0.4,0.4,0.4c0.2,0,0.4-0.2,0.4-0.4v-2.3
		C15.2,23.1,15,22.9,14.8,22.9"/>
	<path class="st1" d="M22.9,22.7c-0.2-0.2-0.4-0.2-0.6,0c-0.2,0.2-0.2,0.4,0,0.6l1.7,1.7c0.1,0.1,0.2,0.1,0.3,0.1s0.2,0,0.3-0.1
		c0.2-0.2,0.2-0.4,0-0.6L22.9,22.7z"/>
	<path class="st1" d="M26.6,14.9h-2.4c-0.2,0-0.4,0.2-0.4,0.4c0,0.2,0.2,0.4,0.4,0.4h2.4c0.2,0,0.4-0.2,0.4-0.4
		C27,15.1,26.8,14.9,26.6,14.9"/>
	<path class="st1" d="M21.4,9.3c0.1,0,0.2,0,0.3-0.1l1.7-1.7c0.2-0.2,0.2-0.4,0-0.6c-0.2-0.2-0.4-0.2-0.6,0l-1.7,1.7
		C21,8.7,21,9,21.1,9.1C21.2,9.2,21.3,9.3,21.4,9.3"/>
</g>
</svg>
