<?xml version="1.0" encoding="utf-8"?>
<!-- Generator: Adobe Illustrator 21.1.0, SVG Export Plug-In . SVG Version: 6.00 Build 0)  -->
<svg version="1.1" id="Calque_1" xmlns="http://www.w3.org/2000/svg" xmlns:xlink="http://www.w3.org/1999/xlink" x="0px" y="0px"
	 viewBox="0 0 29.5 29.5" style="enable-background:new 0 0 29.5 29.5;" xml:space="preserve">
<style type="text/css">
	.st0{clip-path:url(#SVGID_2_);fill:#ffffff;}
</style>
<g>
	<defs>
		<rect id="SVGID_1_" width="29.5" height="29.5"/>
	</defs>
	<clipPath id="SVGID_2_">
		<use xlink:href="#SVGID_1_"  style="overflow:visible;"/>
	</clipPath>
	<path class="st0" d="M17,20.2c0.7,0.4,1.6,0.4,2.4,0l1.9,3.3l-2.6,0l-1.1,2.3l-2.3-4.2C16,21.4,16.6,20.9,17,20.2 M12.2,20.1
		c0.4,0.7,1,1.3,1.8,1.5l-2.3,4.2l-1.2-2.3l-2.5,0l1.9-3.5C10.6,20.4,11.5,20.4,12.2,20.1 M18.2,9.6L18.2,9.6
		c-0.4-0.3-0.9-0.1-1.2,0.2l-2.6,3.3l-2.2-1.6c-0.4-0.3-1-0.1-1.3,0.3l0,0.1c-0.1,0.1-0.3,0.8,0.3,1.3l2.8,3
		c0.2,0.2,0.6,0.2,0.8,0.1c0.3-0.1,0.5-0.2,0.7-0.5l3.2-5.1C18.7,10.4,18.6,9.9,18.2,9.6 M21.8,12.5c0.6,0.7,0.8,1.7,0.5,2.6
		c-0.3,0.9-1.1,1.6-2,1.7c0.1,0.9-0.3,1.9-1.1,2.4c-0.8,0.6-1.8,0.6-2.5,0.2c-0.4,0.8-1.3,1.3-2.2,1.3c-0.9,0-1.8-0.6-2.2-1.4
		c-0.8,0.4-1.8,0.3-2.5-0.3c-0.8-0.6-1.1-1.6-1-2.5c-0.9-0.2-1.6-0.8-1.9-1.8c-0.3-1,0-1.9,0.6-2.6C7,11.5,6.8,10.5,7.1,9.6
		C7.4,8.6,8.1,8,9,7.8c-0.1-0.9,0.2-1.9,1-2.5c0.8-0.6,1.7-0.6,2.5-0.2c0.4-0.8,1.2-1.4,2.2-1.4c1,0,1.9,0.6,2.3,1.6
		c0.8-0.5,1.9-0.4,2.7,0.2c0.7,0.6,1.1,1.6,0.9,2.5c0.9,0.2,1.6,0.9,1.9,1.8C22.7,10.8,22.5,11.8,21.8,12.5"/>
</g>
</svg>
