<?xml version="1.0" encoding="utf-8"?>
<!-- Generator: Adobe Illustrator 21.1.0, SVG Export Plug-In . SVG Version: 6.00 Build 0)  -->
<svg version="1.1" id="Calque_1" xmlns="http://www.w3.org/2000/svg" xmlns:xlink="http://www.w3.org/1999/xlink" x="0px" y="0px"
	 viewBox="0 0 29.5 29.5" style="enable-background:new 0 0 29.5 29.5;" xml:space="preserve">
<style type="text/css">
	.st0{fill:#ffffff;}
</style>
<g>
	<defs>
		<rect id="SVGID_1_" width="29.5" height="29.5"/>
	</defs>
	<clipPath id="SVGID_2_">
		<use xlink:href="#SVGID_1_"  style="overflow:visible;"/>
	</clipPath>
</g>
<path class="st0" d="M9.5,10.6l-0.2,2.1H12l0.6-0.9L9.5,10.6z M8.8,17.6l2.5-3.8H9.2L8.8,17.6z M5.3,21.8l1.4,0.5l1-2.9L8.6,9.2
	l5.5,2.1l-5.5,8.5l-1,2.9L9,23.3l-0.3,1L5,22.8L5.3,21.8z"/>
<path class="st0" d="M16.3,11.9l0.6,0.9h2.8l-0.2-2.2L16.3,11.9z M19.8,13.8h-2.2l2.5,3.9L19.8,13.8z M14.8,11.3l5.6-2.2l0.9,10.3
	l1,2.9l1.4-0.5l0.3,1l-3.7,1.4l-0.3-1l1.4-0.5l-1-2.9L14.8,11.3z"/>
<rect x="14" y="4.9" class="st0" width="1" height="3.7"/>
<polygon class="st0" points="19.3,6.3 18.6,5.6 16.1,8.2 16.8,8.9 "/>
<polygon class="st0" points="12.9,8.2 10.4,5.6 9.7,6.3 12.2,8.9 "/>
</svg>
