<?xml version="1.0" encoding="utf-8"?>
<!-- Generator: Adobe Illustrator 21.1.0, SVG Export Plug-In . SVG Version: 6.00 Build 0)  -->
<svg version="1.1" id="Calque_1" xmlns="http://www.w3.org/2000/svg" xmlns:xlink="http://www.w3.org/1999/xlink" x="0px" y="0px"
	 viewBox="0 0 29.5 29.5" style="enable-background:new 0 0 29.5 29.5;" xml:space="preserve">
<style type="text/css">
	.st0{clip-path:url(#SVGID_2_);fill:#ffffff;}
	.st1{clip-path:url(#SVGID_2_);fill:#ffffff;}
</style>
<g>
	<defs>
		<rect id="SVGID_1_" width="29.5" height="29.5"/>
	</defs>
	<clipPath id="SVGID_2_">
		<use xlink:href="#SVGID_1_"  style="overflow:visible;"/>
	</clipPath>
	<path class="st0" d="M14.8,7.2c-4.2,0-7.6,3.4-7.6,7.6c0,4.2,3.4,7.6,7.6,7.6s7.6-3.4,7.6-7.6C22.3,10.6,18.9,7.2,14.8,7.2
		 M14.8,23.6c-4.9,0-8.8-4-8.8-8.8c0-4.9,4-8.8,8.8-8.8s8.8,4,8.8,8.8C23.6,19.6,19.6,23.6,14.8,23.6"/>
	<path class="st1" d="M14.8,19.9c-2.6,0-4.1-2-4.1-2.1c-0.2-0.3-0.2-0.7,0.1-0.9c0.3-0.2,0.7-0.1,0.9,0.1c0,0,1.2,1.6,3.1,1.6
		s3.1-1.6,3.1-1.6c0.2-0.3,0.6-0.3,0.9-0.1c0.3,0.2,0.3,0.6,0.1,0.9C18.8,17.9,17.3,19.9,14.8,19.9"/>
	<path class="st1" d="M17.8,11.7c0.6,0,1,0.5,1,1c0,0.6-0.5,1-1,1c-0.6,0-1-0.5-1-1C16.8,12.2,17.2,11.7,17.8,11.7"/>
	<path class="st1" d="M10.6,13.4c-0.2,0-0.4-0.1-0.5-0.3c-0.2-0.3-0.1-0.7,0.2-0.8c0,0,0.5-0.3,1.4-0.3c0.8,0,1.3,0.3,1.4,0.3
		c0.3,0.2,0.4,0.6,0.2,0.8c-0.2,0.3-0.6,0.4-0.8,0.2c0,0-0.3-0.2-0.7-0.2c-0.5,0-0.7,0.2-0.8,0.2C10.8,13.4,10.7,13.4,10.6,13.4"/>
</g>
</svg>
