<?xml version="1.0" encoding="utf-8"?>
<!-- Generator: Adobe Illustrator 21.1.0, SVG Export Plug-In . SVG Version: 6.00 Build 0)  -->
<svg version="1.1" id="Calque_1" xmlns="http://www.w3.org/2000/svg" xmlns:xlink="http://www.w3.org/1999/xlink" x="0px" y="0px"
	 viewBox="0 0 29.5 29.5" style="enable-background:new 0 0 29.5 29.5;" xml:space="preserve">
<style type="text/css">
	.st0{clip-path:url(#SVGID_2_);fill:#ffffff;}
	.st1{clip-path:url(#SVGID_2_);fill:#ffffff;}
</style>
<g>
	<defs>
		<rect id="SVGID_1_" width="29.5" height="29.5"/>
	</defs>
	<clipPath id="SVGID_2_">
		<use xlink:href="#SVGID_1_"  style="overflow:visible;"/>
	</clipPath>
	<path class="st0" d="M15.5,10.4c-0.3,0-0.5-0.2-0.5-0.5l-0.4-5.7c0-0.3,0.2-0.5,0.5-0.6c0.3,0,0.5,0.2,0.6,0.5l0.4,5.7
		C16.1,10.1,15.9,10.4,15.5,10.4C15.5,10.4,15.5,10.4,15.5,10.4"/>
	<path class="st1" d="M18.2,10.8c-0.1,0-0.1,0-0.2,0c-0.3-0.1-0.4-0.4-0.3-0.7l0.7-1.8c0.1-0.3,0.4-0.4,0.7-0.3
		c0.3,0.1,0.4,0.4,0.3,0.7l-0.7,1.8C18.6,10.6,18.4,10.8,18.2,10.8"/>
	<path class="st1" d="M13.1,11.1c-0.2,0-0.4-0.1-0.5-0.3l-1.2-2.4c-0.1-0.3,0-0.6,0.2-0.7c0.3-0.1,0.6,0,0.7,0.2l1.2,2.4
		c0.1,0.3,0,0.6-0.2,0.7C13.2,11.1,13.1,11.1,13.1,11.1"/>
	<path class="st1" d="M15.1,19.3c-0.3-0.3-0.6-0.4-1-0.4c-0.4,0-0.7,0.2-1,0.5l-0.3,0.4l1.1-4.9c0.2-0.8-0.3-1.5-1.1-1.7
		c-0.2,0-0.4,0-0.5,0c-0.1-0.6-0.5-1.1-1.1-1.3c-0.6-0.1-1.2,0.1-1.5,0.6c-0.1-0.1-0.3-0.1-0.4-0.2c-0.8-0.2-1.5,0.3-1.7,1.1l0,0.1
		c-0.1-0.1-0.2-0.1-0.4-0.1c-0.8-0.2-1.5,0.3-1.7,1.1c0,0-0.8,3.1-1.4,5.5C3.5,22.4,3.9,24,4,24c0.1,0.2,0.3,0.4,0.5,0.4
		c0,0,0.1,0,0.1,0C4.9,24.3,5.1,24,5,23.8c0,0-0.4-1.4,0.1-3.6c0.5-2.3,1.3-5.4,1.3-5.5c0-0.2,0.2-0.3,0.4-0.3
		c0.2,0,0.3,0.2,0.3,0.4c0,0,0,0.1,0,0.1l-0.7,2.9c-0.1,0.3,0.1,0.6,0.4,0.6c0,0,0.1,0,0.1,0c0.2,0,0.5-0.2,0.5-0.4l1-4.4
		c0-0.2,0.2-0.3,0.4-0.3c0.1,0,0.2,0.1,0.2,0.2c0.1,0.1,0.1,0.2,0,0.3l-1,4.4c-0.1,0.3,0.1,0.6,0.4,0.6C9,19,9.2,18.8,9.3,18.5
		l1-4.4c0,0,0,0,0,0s0,0,0,0l0.2-0.8c0-0.2,0.2-0.3,0.4-0.3c0.2,0,0.3,0.2,0.3,0.4L10,18.7c-0.1,0.3,0.1,0.6,0.4,0.6c0,0,0,0,0.1,0
		c0,0,0,0,0,0c0.3,0.1,0.6-0.1,0.6-0.4l1-4.4c0-0.2,0.2-0.3,0.4-0.3c0.2,0,0.3,0.2,0.3,0.4l-1.5,6.8c0,0,0,0,0,0.1c0,0,0,0.1,0,0.1
		c0,0,0,0,0,0.1c0,0,0,0.1,0.1,0.1c0,0,0,0,0,0c0,0,0,0.1,0.1,0.1c0,0,0,0,0,0c0,0,0,0,0,0c0.1,0,0.1,0.1,0.2,0.1h0c0,0,0,0,0,0
		c0.1,0,0.3,0,0.4-0.1c0,0,0,0,0,0c0,0,0,0,0,0l1.7-1.8c0.1-0.1,0.2-0.1,0.3-0.1c0.1,0,0.2,0,0.3,0.1c0.1,0.1,0.2,0.4,0,0.5
		c-0.4,0.4-3.5,3.5-3.9,4.5c-0.1,0.3,0,0.6,0.2,0.7c0.1,0,0.2,0.1,0.2,0.1c0.2,0,0.4-0.1,0.5-0.3c0.3-0.6,2.5-2.9,3.8-4.2
		C15.7,20.8,15.7,19.9,15.1,19.3"/>
	<path class="st1" d="M25,19c-0.8-2.3-2.1-5.2-2.1-5.2c-0.3-0.7-1.1-1.1-1.8-0.8c-0.1,0-0.2,0.1-0.3,0.2l0-0.1
		c-0.1-0.4-0.4-0.6-0.7-0.8c-0.3-0.2-0.7-0.2-1.1,0c-0.1,0.1-0.3,0.1-0.4,0.2c-0.4-0.4-1-0.6-1.6-0.4c-0.6,0.2-0.9,0.8-0.9,1.4
		c-0.2,0-0.4,0-0.5,0.1c-0.4,0.1-0.6,0.4-0.8,0.7c-0.2,0.3-0.2,0.7,0,1.1l2,5.5c0,0-0.1,0-0.1,0.1c-0.2,0.2-0.2,0.6,0.1,0.7l0.6,0.5
		c0,0,0.7,0.6,1.5,0.6c0.2,0,0.5,0,0.7-0.2c0.3-0.1,0.4-0.4,0.3-0.7c-0.1-0.3-0.4-0.4-0.7-0.3c-0.4,0.2-0.8-0.1-1-0.2L15.6,15
		c0-0.1,0-0.2,0-0.3c0-0.1,0.1-0.2,0.2-0.2c0.1,0,0.2,0,0.3,0c0.1,0,0.2,0.1,0.2,0.2l1.6,4.3c0.1,0.3,0.4,0.4,0.7,0.3c0,0,0,0,0,0
		c0,0,0,0,0,0c0.3-0.1,0.4-0.4,0.3-0.7l-1.9-5.1c-0.1-0.2,0-0.4,0.2-0.5c0.2-0.1,0.4,0,0.5,0.2l0.3,0.8c0,0,0,0,0,0l0,0l1.6,4.3
		c0.1,0.3,0.4,0.4,0.7,0.3c0.3-0.1,0.4-0.4,0.3-0.7l-1.6-4.3c0-0.1,0-0.2,0-0.3c0-0.1,0.1-0.2,0.2-0.2c0.1,0,0.2,0,0.3,0
		c0.1,0,0.2,0.1,0.2,0.2l1.6,4.3c0.1,0.2,0.3,0.3,0.5,0.3c0.1,0,0.1,0,0.2,0c0.3-0.1,0.4-0.4,0.3-0.7l-1-2.8c0,0,0-0.1,0-0.1
		c-0.1-0.2,0-0.4,0.2-0.5c0.2-0.1,0.4,0,0.5,0.2c0,0,1.2,3,2.1,5.2c0.8,2.1,0.6,3.6,0.6,3.6c0,0.3,0.2,0.6,0.5,0.6c0,0,0,0,0.1,0
		c0.3,0,0.5-0.2,0.5-0.5C25.7,23,25.9,21.4,25,19"/>
	<path class="st1" d="M16.1,22.1c-0.2-0.2-0.6-0.1-0.7,0.1c-0.2,0.2-0.1,0.6,0.1,0.7c2.3,1.8,2.8,2.5,3,2.7c0.1,0.2,0.3,0.2,0.4,0.2
		c0.1,0,0.2,0,0.3-0.1c0.2-0.2,0.3-0.5,0.1-0.7C19.1,24.7,18.6,24.1,16.1,22.1"/>
	<path class="st1" d="M19.5,20.1c-0.2,0-0.4,0.2-0.4,0.4c0,0.2,0.2,0.4,0.4,0.4c1.5-0.1,3,2,3,2.1c0.1,0.1,0.2,0.2,0.3,0.2
		c0.1,0,0.2,0,0.2-0.1c0.2-0.1,0.2-0.4,0.1-0.6C23.2,22.4,21.5,20,19.5,20.1"/>
</g>
</svg>
