<?xml version="1.0" encoding="utf-8"?>
<!-- Generator: Adobe Illustrator 21.1.0, SVG Export Plug-In . SVG Version: 6.00 Build 0)  -->
<svg version="1.1" id="Calque_1" xmlns="http://www.w3.org/2000/svg" xmlns:xlink="http://www.w3.org/1999/xlink" x="0px" y="0px"
	 viewBox="0 0 29.5 29.5" style="enable-background:new 0 0 29.5 29.5;" xml:space="preserve">
<style type="text/css">
	.st0{clip-path:url(#SVGID_2_);fill:#ffffff;}
</style>
<g>
	<defs>
		<rect id="SVGID_1_" width="29.5" height="29.5"/>
	</defs>
	<clipPath id="SVGID_2_">
		<use xlink:href="#SVGID_1_"  style="overflow:visible;"/>
	</clipPath>
	<path class="st0" d="M20.6,16.9c-1.1,0-2-1-2-2.1c0-1.2,0.9-2.1,2-2.1c1.1,0,2,1,2,2.1C22.6,15.9,21.7,16.9,20.6,16.9 M14.7,16.9
		c-1.1,0-2-1-2-2.1c0-1.2,0.9-2.1,2-2.1c1.1,0,2,1,2,2.1C16.7,15.9,15.8,16.9,14.7,16.9 M8.9,16.9c-1.1,0-2-1-2-2.1
		c0-1.2,0.9-2.1,2-2.1s2,1,2,2.1C10.8,15.9,10,16.9,8.9,16.9"/>
</g>
</svg>
