<?xml version="1.0" encoding="utf-8"?>
<!-- Generator: Adobe Illustrator 21.1.0, SVG Export Plug-In . SVG Version: 6.00 Build 0)  -->
<svg version="1.1" id="Calque_1" xmlns="http://www.w3.org/2000/svg" xmlns:xlink="http://www.w3.org/1999/xlink" x="0px" y="0px"
	 viewBox="0 0 29.5 29.5" style="enable-background:new 0 0 29.5 29.5;" xml:space="preserve">
<style type="text/css">
	.st0{clip-path:url(#SVGID_2_);fill:#ffffff;}
</style>
<g>
	<defs>
		<rect id="SVGID_1_" width="29.5" height="29.5"/>
	</defs>
	<clipPath id="SVGID_2_">
		<use xlink:href="#SVGID_1_"  style="overflow:visible;"/>
	</clipPath>
	<path class="st0" d="M22.2,22.1h-1.5v-1.5h-0.9v1.5h-1.5V23h1.5v1.5h0.9V23h1.5V22.1z M23.5,22.5c0,1.8-1.4,3.2-3.2,3.2
		s-3.2-1.4-3.2-3.2c0-1.8,1.4-3.2,3.2-3.2S23.5,20.7,23.5,22.5 M20.4,16.9c-2-0.5-3.6-1.7-3.6-1.7l-1.5,4.8l-0.2,0.7l-0.7-1.9
		c1.7-2.4-0.4-2.3-0.4-2.3s-2.1-0.1-0.4,2.3l-0.7,1.9l-0.2-0.6l0,0l-0.2-0.8l-1.3-4.1c0,0-1.6,1.2-3.6,1.7c-1.5,0.4-1.6,2.1-1.5,3
		c0,0,0,1.2,0.2,1.7c0,0,2.9,1.9,7.8,1.9l0-0.1l0,0.1c0.8,0,1.6-0.1,2.3-0.1c0-0.3-0.1-0.5-0.1-0.8c0-2.3,1.8-4.1,4-4.1
		c0.6,0,1.1,0.1,1.6,0.3C21.8,18,21.4,17.2,20.4,16.9 M11.9,14.5c-0.9-0.7-1.2-1.7-1.4-2.6c0,0-0.1,0.1-0.1,0
		c-0.2,0-0.4-0.3-0.7-1.3C9.4,9.3,9.7,9,10,9c0.1,0,0.1,0,0.1,0l0,0c0,0-0.9-3.1,1.3-4.5c0,0-0.4-0.3-0.4-0.8c0,0,1,0.1,2,0.1
		c0.4,0,0.9,0,1.2-0.1c0.1,0,0.3,0,0.4,0c0.9,0,1.8,0.7,1.9,1.4c0,0,0,0,0,0c0.3,0,2.1,0.1,1.2,3.8c0,0,0,0,0,0c0,0,0.1,0,0.1,0
		c0.3,0,0.6,0.3,0.3,1.6c-0.3,1.1-0.5,1.3-0.7,1.3c-0.1,0-0.1,0-0.2-0.1c-0.1,0.8-0.5,1.9-1.3,2.6C13.9,16.1,11.9,14.5,11.9,14.5"/>
</g>
</svg>
